<svg width="57" height="47" viewBox="0 0 57 47" fill="none" xmlns="http://www.w3.org/2000/svg">
<path d="M55.7752 21.8141L50.5706 13.4114C50.6819 13.204 50.7655 12.9706 50.7655 12.7112C50.7655 11.9332 50.0697 11.2848 49.2347 11.2588L43.4735 1.97434C43.5292 1.81874 43.5848 1.66315 43.5848 1.50756C43.5848 0.677708 42.8612 0.0292969 41.9983 0.0292969C41.4974 0.0292969 41.0799 0.236785 40.7737 0.573916H29.6967C29.4184 0.236881 29.0009 0.0293937 28.4999 0.0293937C27.999 0.0293937 27.5815 0.236881 27.3032 0.574013H16.2818C15.9756 0.236881 15.5582 0.0293937 15.0572 0.0293937C14.1944 0.0293937 13.4707 0.677708 13.4707 1.50766C13.4707 1.66325 13.5264 1.84479 13.5821 1.97443L7.76518 11.3886C7.20866 11.622 6.81891 12.1148 6.81891 12.7113C6.81891 12.7631 6.84675 12.815 6.84675 12.8669L1.30817 21.7883C0.556726 21.9179 0 22.5145 0 23.2406C0 23.9408 0.528775 24.5373 1.25248 24.6929L6.98588 33.9256C6.93019 34.0812 6.90234 34.2108 6.90234 34.3924C6.90234 35.0926 7.43112 35.6891 8.15482 35.8187L13.5264 44.5067C13.4707 44.6623 13.4151 44.8438 13.4151 45.0254C13.4151 45.8552 14.1387 46.5036 15.0016 46.5036C15.5025 46.5036 15.92 46.2961 16.1984 45.985H27.3033C27.5815 46.296 28.0269 46.5035 28.4999 46.5035C28.973 46.5035 29.4184 46.296 29.6967 45.9849H40.8295C41.1077 46.2701 41.5252 46.4516 41.9706 46.4516C42.8612 46.4516 43.557 45.7774 43.557 44.9734C43.557 44.8178 43.5293 44.6881 43.4736 44.5585L48.8452 35.8186C49.5688 35.689 50.0977 35.0925 50.0977 34.3923C50.0977 34.2367 50.0698 34.0811 50.0141 33.9255L55.7197 24.6928C56.4433 24.5632 57 23.9667 57 23.2405C56.9998 22.5403 56.4709 21.9438 55.7752 21.8141ZM14.5283 42.1206L9.99177 34.7813H14.5283V42.1206ZM14.5283 34.0032H9.99177C9.96392 33.8996 9.90823 33.7959 9.85264 33.6921L14.5283 29.1018V34.0032ZM14.5283 27.9605L9.29591 33.1215C9.15678 33.0696 9.01755 32.9918 8.87842 32.9659L3.08953 23.6295C3.14512 23.4999 3.14512 23.3702 3.14512 23.2405C3.14512 23.1109 3.14512 23.0072 3.11727 22.9034L8.51672 14.1895C8.79509 14.1635 9.07335 14.0857 9.32386 13.9301L14.5284 18.9614V27.9605H14.5283ZM14.5283 18.0536L9.7691 13.4633C9.90823 13.2558 9.99177 12.9965 9.99177 12.7113C9.99177 12.6854 9.96392 12.6335 9.96392 12.6075L14.5283 11.0774V18.0536ZM14.5283 10.2474L9.99177 11.7776L14.5283 4.46409V10.2474ZM48.4554 14.0339L48.539 14.1635L44.8651 30.3465L38.2411 23.837L48.4276 14.0079L48.4554 14.0339ZM28.8896 32.8621L30.0864 34.0032H27.7207L28.8896 32.8621ZM28.8617 31.7729L20.2061 23.4999L28.4721 15.3306L37.1 23.8111L28.8617 31.7729ZM29.4184 32.3434L37.6566 24.3816L44.6702 31.2802L44.058 34.0032H31.1718L29.4184 32.3434ZM41.2191 2.77844C41.3304 2.83033 41.4417 2.88223 41.5809 2.90818L47.5926 12.6594V12.7113C47.5926 12.9965 47.676 13.2558 47.8153 13.4633L37.6845 23.2665L29.0567 14.786L41.2191 2.77844ZM40.2729 2.57095L28.4721 14.2154L22.5439 8.38021L39.8274 2.57095H40.2729ZM27.4423 2.57095C27.7206 2.83023 28.0823 2.98583 28.4999 2.98583C28.9175 2.98583 29.2792 2.83023 29.5576 2.57095H37.3505L21.9317 7.75775L16.6436 2.57095H27.4423ZM15.3634 3.11557L15.4747 2.90818C15.5686 2.88581 15.6614 2.85984 15.753 2.83033L21.0689 8.04318L15.3634 9.96227V3.11557ZM15.3634 10.7921L21.6811 8.66555L27.8876 14.786L19.6216 22.9293L15.3634 18.8577V10.7921ZM15.3634 19.7653L19.1484 23.4221L15.3634 27.1307V19.7653ZM15.3634 28.2718L19.7329 23.9668L28.333 32.2916L26.5517 34.0032H15.3634V28.2718ZM16.087 43.962C15.92 43.8064 15.7252 43.7027 15.4747 43.6248L15.3634 43.4693V34.7813H25.7446L16.2261 43.962H16.087ZM29.5854 43.962C29.3071 43.7286 28.9175 43.5471 28.4999 43.5471C28.0823 43.5471 27.6929 43.7286 27.4144 43.962H17.3949L26.9134 34.7813H30.8934L40.4119 43.962H29.5854ZM42.0541 42.8208L41.6088 43.547C41.4697 43.5729 41.3584 43.6247 41.247 43.6766L31.979 34.7812H43.8633L42.0541 42.8208ZM43.3899 40.6683L44.7259 34.7813H47.0081L43.3899 40.6683ZM47.0081 34.0032H44.8929L45.366 31.9545L47.1473 33.718C47.0917 33.7958 47.036 33.8995 47.0081 34.0032ZM53.8826 23.6036L48.1214 32.9659C47.9822 33.0177 47.843 33.0696 47.7039 33.1473L45.5608 31.0208L49.1512 15.1491L53.9104 22.8256C53.8826 22.9553 53.8269 23.0849 53.8269 23.2405C53.8269 23.3702 53.8548 23.4739 53.8826 23.6036Z" fill="#27AE60"/>
</svg>
