<svg xmlns="http://www.w3.org/2000/svg" viewBox="0 0 640 480">
  <g fill-rule="evenodd" stroke-width="1pt">
    <path fill="#229e45" d="M0 0h640v480H0z"/>
    <path fill="#f8e509" d="M321.4 436L81.9 244h478.8L321.4 436z"/>
    <path fill="#f8e509" d="M578.1 244L321.4 44 64.7 244h513.4z"/>
    <circle cx="321.4" cy="240" r="82.8" fill="#2846a0"/>
    <path fill="#fff" d="M283.6 245.5c41.6 0 82.8-6.3 122.3-18.9-6.6-36.5-36.5-64.7-73.9-69.5-26.3-3.3-53.2 2.4-74.2 15.8-21.1 13.4-35.6 34.1-40.2 57.6 21.9 9.8 44.5 14.8 66 15z"/>
    <path fill="#2846a0" d="M334.9 224.5c-17.2 8.7-36.5 11.7-55.1 8.7-18.6-3-35.9-12.4-48.8-26.8 4.8-23.8 19.9-45.2 41.6-59 21.6-13.8 48.2-19.6 74.5-16.2 26.3 3.4 50.6 16.5 67.8 36.8-27.2 22.4-57.6 41.9-80 56.5z"/>
  </g>
</svg>
