<svg width="45" height="47" viewBox="0 0 45 47" fill="none" xmlns="http://www.w3.org/2000/svg">
<path d="M44.1461 14.7884L23.5797 0.62825C22.8777 0.182114 22.1285 0.178029 21.4201 0.62825L0.853768 14.7884C0.326425 15.1514 0 15.7999 0 16.4482V30.6083C0 31.2567 0.326425 31.905 0.853856 32.2681L21.4202 46.4303C22.1222 46.8764 22.8714 46.8805 23.5798 46.4303L44.1461 32.2681C44.6735 31.9051 45 31.2567 45 30.6083V16.4482C44.9999 15.7999 44.6735 15.1514 44.1461 14.7884ZM24.4335 6.02247L39.5758 16.4482L32.8208 21.1164L24.4335 15.333V6.02247ZM20.5664 6.02247V15.333L12.1791 21.1164L5.42407 16.4482L20.5664 6.02247ZM3.86718 20.1828L8.71372 23.5283L3.86718 26.8738V20.1828ZM20.5664 41.0341L5.42407 30.6084L12.1791 25.9401L20.5664 31.7236V41.0341ZM22.5 28.2483L15.6695 23.5283L22.5 18.8082L29.3304 23.5283L22.5 28.2483ZM24.4335 41.0341V31.7236L32.8208 25.9401L39.5758 30.6084L24.4335 41.0341ZM41.1327 26.8738L36.2862 23.5283L41.1327 20.1828V26.8738Z" fill="#27AE60"/>
</svg>
